<svg xmlns="http://www.w3.org/2000/svg" viewBox="0 0 547.51 127.81" width="150" height="50"><defs><style>.cls-1{fill:white;}</style></defs><title>COOPTN_2020_LogoUnitas_bandiera_positivo</title><path class="cls-1" d="M185.52,39.46c0-10.26,6.56-16.56,18.22-16.56,9,0,14.85,3.57,17.32,10.64a1.93,1.93,0,0,1-1.33,2.8l-3.51,1.21c-1.52.51-2.16.19-2.74-1.34-1.4-3.89-4.65-5.86-9.74-5.86-6.56,0-10.19,3.19-10.19,9V53.47c0,5.86,3.63,9.11,10.19,9.11q7.55,0,9.74-5.92c.71-1.59,1.28-1.92,2.81-1.34l3.44,1.21a2,2,0,0,1,1.4,2.8Q217.41,70,203.74,70c-11.66,0-18.22-6.24-18.22-16.62Z" transform="translate(-17.3 -14.05)"/><path class="cls-1" d="M246.6,47.86c0-3.88-2.67-6-7.32-6S232,44,232,47.86v9.43c0,3.82,2.62,6.05,7.27,6.05s7.32-2.23,7.32-6.05Zm-22,0c0-8,5.29-12.73,14.66-12.73S254,39.9,254,47.86v9.43c0,8-5.29,12.74-14.71,12.74s-14.66-4.77-14.66-12.74Z" transform="translate(-17.3 -14.05)"/><path class="cls-1" d="M281.5,47.86c0-3.88-2.68-6-7.33-6s-7.26,2.16-7.26,6v9.43c0,3.82,2.61,6.05,7.26,6.05s7.33-2.23,7.33-6.05Zm-22,0c0-8,5.29-12.73,14.65-12.73s14.72,4.77,14.72,12.73v9.43c0,8-5.29,12.74-14.72,12.74s-14.65-4.77-14.65-12.74Z" transform="translate(-17.3 -14.05)"/><path class="cls-1" d="M316.27,48.19c0-4.21-2.36-6.31-7.14-6.31a21.92,21.92,0,0,0-5.73.7.86.86,0,0,0-.64.83V62.32a25.6,25.6,0,0,0,6.18,1c4.91,0,7.33-2.29,7.33-6.82Zm-6-13.06c9,0,13.43,4.52,13.43,12.87v8.72c0,8.85-4.71,13.31-14.2,13.31a29.14,29.14,0,0,1-6.69-1.14V81.11c0,1.47-.44,2-1.91,2h-3.5c-1.46,0-2-.51-2-2V40.61c0-2,.44-2.81,2.48-3.63a36.33,36.33,0,0,1,12.36-1.85" transform="translate(-17.3 -14.05)"/><path class="cls-1" d="M351.29,47.87c0-4.14-2.48-6.5-7.33-6.5s-7.38,2.36-7.38,6.5v1.4h14.71Zm-22.1,1c0-8.92,5.15-13.76,14.77-13.76s14.72,5.48,14.72,13.18V52.2c0,1.84-1,2.73-2.87,2.73H336.58v2.36c0,4.14,2.61,6.37,7.25,6.37,3.58,0,6.06-1.14,7.52-3.38,1-1.46,1.72-1.59,3.25-.76l2.23,1.21c1.47.7,1.72,1.72.76,3.19Q353.87,70,343.83,70c-9.93,0-14.64-5.29-14.64-13.63Z" transform="translate(-17.3 -14.05)"/><path class="cls-1" d="M381.09,35.13c1.47,0,2,.44,2,2v2.8c0,1.47-.51,2-2,2H378.8a21,21,0,0,0-6.06.76.68.68,0,0,0-.63.77V67.1c0,1.47-.45,2-1.92,2h-3.5c-1.46,0-2-.51-2-2V40.67c0-2,.44-2.8,2.48-3.63a37.75,37.75,0,0,1,11.85-1.91Z" transform="translate(-17.3 -14.05)"/><path class="cls-1" d="M406.88,55.83c-4.46-.19-6.75-.32-6.94-.32-4.59,0-6.12,1.34-6.12,4.14s1.34,4.27,6,4.27a33,33,0,0,0,6.37-.51,1,1,0,0,0,.7-.89Zm-6.24-20.7c9.1,0,13.63,4.39,13.63,13.12V64.74c0,2.23-.51,2.87-2.29,3.63-2.55,1.09-6.37,1.66-11.47,1.66-5.41,0-9.11-.83-11.15-2.55s-3.05-4.26-3.05-7.77c0-7.58,4.07-10.25,14.46-10.25.44,0,2.48.13,6.11.32V48c0-4.15-1.79-6.31-6.37-6.31q-4.68,0-6.69,3.05c-.95,1.34-1.27,1.47-2.74,1l-2.54-1.08c-1.4-.64-1.79-1.59-1.09-2.87,2.29-4.39,6.69-6.62,13.19-6.62" transform="translate(-17.3 -14.05)"/><path class="cls-1" d="M443.88,62.39c1.46,0,1.9.51,1.9,2V67.1c0,1.47-.44,2-1.9,2H421.59c-1.47,0-2-.51-2-2V64.36a2.9,2.9,0,0,1,.7-2l15.61-19.62h-14c-1.46,0-2-.51-2-2V38c0-1.46.51-1.91,2-1.91h21.66c1.47,0,1.91.45,1.91,1.91V40.8a3.4,3.4,0,0,1-.7,2.1L429,62.39Z" transform="translate(-17.3 -14.05)"/><path class="cls-1" d="M458.39,36.08c1.47,0,2,.45,2,1.91V67.1c0,1.47-.51,2-2,2h-3.5c-1.46,0-1.91-.51-1.91-2V38c0-1.46.45-1.91,1.91-1.91Zm-1.53-12.35c3,0,3.89.95,3.89,3.82v.57c0,3-.89,3.89-3.89,3.89h-.44c-2.87,0-3.89-.89-3.89-3.89v-.57c0-2.87.9-3.82,3.89-3.82Z" transform="translate(-17.3 -14.05)"/><path class="cls-1" d="M487.69,47.86c0-3.88-2.67-6-7.32-6s-7.27,2.16-7.27,6v9.43c0,3.82,2.62,6.05,7.27,6.05s7.32-2.23,7.32-6.05Zm-22,0c0-8,5.29-12.73,14.66-12.73s14.71,4.77,14.71,12.73v9.43c0,8-5.29,12.74-14.71,12.74s-14.66-4.77-14.66-12.74Z" transform="translate(-17.3 -14.05)"/><path class="cls-1" d="M516.6,35.13c8.92,0,13.25,4.58,13.25,12.8V67.1c0,1.47-.51,2-2,2h-3.5c-1.46,0-1.91-.51-1.91-2v-19c0-4.14-2.3-6.24-7-6.24a22.21,22.21,0,0,0-6.11.83.6.6,0,0,0-.44.64V67.1c0,1.47-.45,2-1.91,2h-3.51c-1.46,0-2-.51-2-2V40.93c0-2,.44-2.81,2.48-3.64a33.3,33.3,0,0,1,12.55-2.16" transform="translate(-17.3 -14.05)"/><path class="cls-1" d="M557.42,47.87c0-4.14-2.49-6.5-7.33-6.5s-7.38,2.36-7.38,6.5v1.4h14.71Zm-22.1,1c0-8.92,5.15-13.76,14.77-13.76s14.72,5.48,14.72,13.18V52.2c0,1.84-1,2.73-2.87,2.73H542.71v2.36c0,4.14,2.61,6.37,7.26,6.37,3.56,0,6-1.14,7.51-3.38,1-1.46,1.72-1.59,3.25-.76L563,60.73c1.47.7,1.72,1.72.76,3.19Q560,70,550,70c-9.94,0-14.65-5.29-14.65-13.63Z" transform="translate(-17.3 -14.05)"/><path class="cls-1" d="M215.4,87.15c1.59,0,2.16.57,2.16,2.17v3.12c0,1.59-.57,2.16-2.16,2.16h-11v35.61c0,1.59-.57,2.16-2.16,2.16h-3.7c-1.59,0-2.16-.57-2.16-2.16V94.6h-11c-1.59,0-2.16-.57-2.16-2.16V89.32c0-1.6.57-2.17,2.16-2.17Z" transform="translate(-17.3 -14.05)"/><path class="cls-1" d="M234.69,98.42c1.46,0,2,.45,2,2v2.8c0,1.47-.52,2-2,2H232.4a20.83,20.83,0,0,0-6.05.76.67.67,0,0,0-.64.77V130.4c0,1.47-.44,2-1.91,2h-3.51c-1.46,0-2-.5-2-2V104c0-2,.44-2.81,2.48-3.63a37.78,37.78,0,0,1,11.85-1.92Z" transform="translate(-17.3 -14.05)"/><path class="cls-1" d="M262.26,111.16c0-4.14-2.48-6.49-7.32-6.49s-7.39,2.35-7.39,6.49v1.41h14.71Zm-22.1,1c0-8.92,5.16-13.76,14.78-13.76s14.71,5.48,14.71,13.19v3.89c0,1.84-1,2.73-2.86,2.73H247.55v2.36c0,4.14,2.61,6.37,7.26,6.37,3.57,0,6.05-1.15,7.52-3.38,1-1.46,1.72-1.59,3.25-.76l2.23,1.21c1.46.7,1.72,1.72.76,3.18q-3.72,6.12-13.76,6.12c-9.93,0-14.65-5.29-14.65-13.63Z" transform="translate(-17.3 -14.05)"/><path class="cls-1" d="M290.73,98.42c8.91,0,13.25,4.59,13.25,12.81V130.4c0,1.47-.51,2-2,2h-3.5c-1.47,0-1.91-.5-1.91-2v-19c0-4.14-2.3-6.24-6.95-6.24a22.53,22.53,0,0,0-6.11.82.62.62,0,0,0-.45.64V130.4c0,1.47-.44,2-1.91,2h-3.5c-1.46,0-2-.5-2-2V104.22c0-2,.45-2.8,2.49-3.63a33.3,33.3,0,0,1,12.55-2.17" transform="translate(-17.3 -14.05)"/><path class="cls-1" d="M320.15,91.74c1.46,0,2,.44,2,1.91v5.73h7.26c1.47,0,2,.45,2,1.91v2.93c0,1.46-.5,2-2,2h-7.26V119c0,3,.51,5,1.53,5.92s2.86,1.4,5.67,1.4c1.53,0,2,.45,2,2v2.93c0,1.53-.5,2-2,2-5.35.2-9.11-.76-11.27-2.8s-3.32-5.79-3.32-11.21v-13h-4.39c-1.47,0-1.91-.52-1.91-2v-2.93c0-1.46.44-1.91,1.91-1.91h4.39V93.65c0-1.47.51-1.91,2-1.91Z" transform="translate(-17.3 -14.05)"/><path class="cls-1" d="M344.53,99.38c1.47,0,2,.45,2,1.91V130.4c0,1.46-.51,2-2,2H341c-1.46,0-1.91-.51-1.91-2V101.29c0-1.46.45-1.91,1.91-1.91ZM343,87c3,0,3.89,1,3.89,3.83v.57c0,3-.89,3.88-3.89,3.88h-.44c-2.87,0-3.88-.89-3.88-3.88v-.57c0-2.87.89-3.83,3.88-3.83Z" transform="translate(-17.3 -14.05)"/><path class="cls-1" d="M369.05,98.42c8.91,0,13.25,4.59,13.25,12.81V130.4c0,1.47-.51,2-2,2h-3.51c-1.46,0-1.91-.5-1.91-2v-19c0-4.14-2.29-6.24-6.94-6.24a22.6,22.6,0,0,0-6.12.82.62.62,0,0,0-.44.64V130.4c0,1.47-.45,2-1.92,2H356c-1.46,0-2-.5-2-2V104.22c0-2,.45-2.8,2.48-3.63a33.3,33.3,0,0,1,12.55-2.17" transform="translate(-17.3 -14.05)"/><path class="cls-1" d="M408.47,119.13c-4.46-.19-6.75-.32-7-.32-4.58,0-6.11,1.33-6.11,4.14s1.34,4.26,6,4.26a33.14,33.14,0,0,0,6.37-.5c.45-.2.7-.45.7-.9Zm-6.24-20.71c9.11,0,13.63,4.4,13.63,13.12V128c0,2.23-.52,2.87-2.3,3.63-2.55,1.09-6.37,1.66-11.46,1.66-5.42,0-9.11-.83-11.15-2.55s-3.05-4.27-3.05-7.77c0-7.58,4.07-10.25,14.45-10.25.45,0,2.49.12,6.12.31v-1.78c0-4.14-1.78-6.3-6.37-6.3-3.12,0-5.35,1-6.69,3.05-1,1.34-1.27,1.47-2.74,1l-2.55-1.08c-1.4-.64-1.78-1.6-1.08-2.87,2.3-4.39,6.69-6.63,13.19-6.63" transform="translate(-17.3 -14.05)"/><path class="cls-1" d="M106.27,84.83c3.54,1.76,4,8.06,2.16,12.57a2.12,2.12,0,0,1-2.89,1.26l-37-16.78c-4.86-7.37-1.09-15.4-1.09-15.4Z" transform="translate(-17.3 -14.05)"/><path class="cls-1" d="M107.16,82.07A15.58,15.58,0,0,0,109.69,74c0-5.12-1.79-7.61-1.79-7.61l-17.43,8.1Z" transform="translate(-17.3 -14.05)"/><path class="cls-1" d="M68.69,85s-2.28,3.73-2.34,7.19a14.27,14.27,0,0,0,1.05,5.67,1.91,1.91,0,0,0,2.59,1l14.47-6.69Z" transform="translate(-17.3 -14.05)"/><path class="cls-1" d="M124.54,132.11c-8.25-7.61-13.88-17.94-18-30q-9.3-4.65-18.61-8.72-9.28,4.13-18.56,8.8c-3.58,12-9.79,22.67-18.18,29.75-.67.57-.78,1.22,0,1.72s5.31,2.26,5.31,2.26A1.32,1.32,0,0,0,58,135.7c5.29-5.58,10.12-19.37,13.77-30.9l2,.71s-7,25.17-13.28,31a.67.67,0,0,0,.34,1.07c.89.39,6,1.7,6,1.71a.86.86,0,0,0,1-.34c4.62-7.41,7.63-23.48,9.88-37l2.28.91C77.2,118,74.91,132,71.06,139.34c-.21.41,0,.81.54,1,.94.31,6.54,1,6.54,1a1,1,0,0,0,1.06-.59c3-8.68,4-27.92,4.44-41.41l2.52,1.06c-.59,13.14-1.63,31.67-3.44,40.26a.89.89,0,0,0,.7,1.12c.91.08,2.53.1,4.57.11s3.58,0,4.54-.13a.89.89,0,0,0,.7-1.16c-2.48-9.93-3.21-29-3.56-41.72L92.18,100c.28,13.24,1.14,31.51,4.27,40.75a.94.94,0,0,0,1,.59s5.61-.65,6.55-1c.59-.2.74-.59.54-1C101.13,132,97.9,117,95.67,101.56l2.66,1.24c2.75,22.57,9.13,35.58,9.51,36.14a.93.93,0,0,0,1,.34s5.11-1.32,6-1.71a.68.68,0,0,0,.35-1.07c-4.64-5.11-9.4-18.2-13.49-32.1l2.84,1.38c3.81,11.43,7.32,23.36,13.14,29.92a1.28,1.28,0,0,0,1.48.23,57.23,57.23,0,0,0,5.34-2.11c.78-.49.81-1.35,0-1.71" transform="translate(-17.3 -14.05)"/><path class="cls-1" d="M63.3,23.48c-2.44-3.6-5.62-4.14-8.23-2.23C52.71,23,52.7,26.33,54.94,29A86.76,86.76,0,0,1,74.41,66.33L78,68c-2.87-19.5-10.33-38.06-14.7-44.5" transform="translate(-17.3 -14.05)"/><path class="cls-1" d="M49.84,29.56c-3.4-2.37-6.65-2.26-8.71.27a5.06,5.06,0,0,0,3,7.81c3.25.61,16.07,6.53,23.42,25.56l4,1.82C67.44,49.3,56.09,33.93,49.84,29.56" transform="translate(-17.3 -14.05)"/><path class="cls-1" d="M77.45,20.07c-1.69-4-5.1-4.9-8-3.62-2.52,1.09-3.38,4-2.1,6.61,0,0,10.51,22.14,13.29,46.1l3.27,1.51c-.06-18.27-3.21-43.07-6.42-50.6" transform="translate(-17.3 -14.05)"/><path class="cls-1" d="M94,21.71c1-4.16-1.57-7.66-6.26-7.66-4.24,0-6.54,3.94-5.74,8.17,2.09,11.05,4.12,30.8,4.2,49.5l1.56.71,1.74-.79c.1-19.48,2.43-41.15,4.5-49.93" transform="translate(-17.3 -14.05)"/><path class="cls-1" d="M106.32,16.45c-2.94-1.28-6.36-.34-8,3.62-3,7.14-6.11,29.92-6.46,47.82l2.89,1.35c.38.16.43-.2.43-.2,2.81-23.92,13.29-46,13.29-46a4.7,4.7,0,0,0-2.1-6.61" transform="translate(-17.3 -14.05)"/><path class="cls-1" d="M120.33,21.25c-2.61-1.91-5.79-1.37-8.23,2.23C107.88,29.7,101,46.6,98,65.3l2.61,1.22a.3.3,0,0,0,.45-.21A86.61,86.61,0,0,1,120.46,29c2.24-2.63,2.23-6-.13-7.71" transform="translate(-17.3 -14.05)"/><path class="cls-1" d="M134.27,29.83c-2.06-2.53-5.31-2.64-8.71-.27-5.88,4.11-16.26,17.94-20.9,32.64,0,0,2.35,1.1,2.68,1.24a.34.34,0,0,0,.46-.21c7.34-19,20.17-25,23.43-25.59a5.06,5.06,0,0,0,3-7.81" transform="translate(-17.3 -14.05)"/><path class="cls-1" d="M157.16,85.75a6.83,6.83,0,0,0-9.39-6.37l-12.16,5.67a9.29,9.29,0,0,1-12.36-4.7h0a11.14,11.14,0,0,1,0-8,9.52,9.52,0,0,1,5.27-5.08L149,59.35a7.06,7.06,0,0,0,4.47-6.23v-.5A6.86,6.86,0,0,0,153,50.2a7.11,7.11,0,0,0-3.84-4,6.82,6.82,0,0,0-5.3,0c-2.31.91-4.85,3.51-7.8,6.52-5.8,5.94-15.77,16.08-25.52,13.9,1.53,2.81,3,9.25-.94,16.43,3.68,1.69,10.61-.55,13-2.34a.12.12,0,0,1,.19.1V91.5c.77,5.64,7,8.66,12.93,6.7,4.88-1.61,16.94-5.77,16.94-5.77A6.83,6.83,0,0,0,157.16,85.75ZM143.59,50H149v1.4h-2v5h-1.41v-5h-2Zm4.68,39.76a1.92,1.92,0,0,1-.54.66,2.18,2.18,0,0,1-.78.38,3.52,3.52,0,0,1-2.09-.06,2.86,2.86,0,0,1-1-.61l1-1.1a1.48,1.48,0,0,0,.54.45,1.64,1.64,0,0,0,.68.15,1.45,1.45,0,0,0,.35,0,.84.84,0,0,0,.31-.12.66.66,0,0,0,.23-.21.58.58,0,0,0-.14-.75,2.17,2.17,0,0,0-.55-.28c-.22-.08-.46-.16-.72-.23a3.35,3.35,0,0,1-.72-.32,1.74,1.74,0,0,1-.56-.52,1.56,1.56,0,0,1-.22-.86,1.87,1.87,0,0,1,.21-.9,1.85,1.85,0,0,1,.54-.64,2.08,2.08,0,0,1,.77-.39,3.13,3.13,0,0,1,.91-.13,3.7,3.7,0,0,1,1.05.15,2.42,2.42,0,0,1,.91.51l-1,1a1,1,0,0,0-.46-.32,2,2,0,0,0-.55-.1,1.17,1.17,0,0,0-.32,0,1,1,0,0,0-.3.11.68.68,0,0,0-.24.2.54.54,0,0,0-.09.31.5.5,0,0,0,.22.44,1.94,1.94,0,0,0,.54.26l.71.22a2.74,2.74,0,0,1,.7.3,1.49,1.49,0,0,1,.76,1.42A2.06,2.06,0,0,1,148.27,89.72Z" transform="translate(-17.3 -14.05)"/><polygon class="cls-1" points="127.97 56.94 129.71 56.94 128.82 54.98 127.97 56.94"/><path class="cls-1" d="M156.64,68.07l-1.92-10.65a.07.07,0,0,0-.13,0,8.64,8.64,0,0,1-4.68,4.27L129.47,69.6a7.07,7.07,0,0,0,5.16,13.16l17.45-8.19C154.83,73.49,157.1,71.08,156.64,68.07Zm-8.71,5-.28-.68-.08-.18h-2.83l-.37.86h-1.55l3-6.37h.67l3.07,6.37Z" transform="translate(-17.3 -14.05)"/><path class="cls-1" d="M44.61,60a.18.18,0,0,0,.34-.1l-.2-7.79c0-2-1.71-3.89-3.38-5a9.9,9.9,0,0,0-7.74-1l2.85,10.22A7.81,7.81,0,0,1,44.61,60Z" transform="translate(-17.3 -14.05)"/><path class="cls-1" d="M21,76.84,40,69.77a5.75,5.75,0,0,0,3.15-3.2,6.23,6.23,0,0,0-.39-5.25c-3.17-4.8-8.69-1.81-8.69-1.81l-11.86,6c-1.92.73-2.1,1.88-2.68,4.79L18,78.68a9.65,9.65,0,0,1,2.91-1.81Z" transform="translate(-17.3 -14.05)"/><path class="cls-1" d="M52.08,91.25a7.08,7.08,0,0,0-9.16-4l-12.8,6.33c-3.08,1.65-4.52,3.62-4.57,6.5l1.57,10.82a.25.25,0,0,0,.47.11A10,10,0,0,1,31.68,107l16.4-6.54A7.08,7.08,0,0,0,52.08,91.25Zm-12.63,9.67H38.36l-3.53-4h0v4h-1.4V94.55h1.16L38,98.49h0V94.55h1.41Z" transform="translate(-17.3 -14.05)"/><path class="cls-1" d="M66.06,83.68c-4.47-1.79-9.63,2.27-11.19,5.23a.09.09,0,0,1-.17,0V78.49c-.78-5.62-7-8.64-12.93-6.68-4.87,1.6-20,7.4-20,7.4a7.08,7.08,0,0,0-4.3,5.14v0l-.14,1.52h0a6.8,6.8,0,0,0,.48,2.45,6.76,6.76,0,0,0,8.91,3.91L41.94,85a9.37,9.37,0,0,1,12.59,5.33A9.57,9.57,0,0,1,49,102.74L33.6,108.66a7.07,7.07,0,0,0-4.48,6.23v.5a7.26,7.26,0,0,0,4.32,6.43,6.92,6.92,0,0,0,5.71-.17c2.22-1.11,4.78-4.15,7.11-7.67,4.08-6.18,9.21-15.44,18.9-13.93a.09.09,0,0,0,.1-.13c-1.5-2.87-3-9.09.86-16.1A.11.11,0,0,0,66.06,83.68ZM39.34,81.14a2.77,2.77,0,0,1-2.91,2.79,2.67,2.67,0,0,1-2.92-2.79V77.4h1.42V81a1.49,1.49,0,1,0,3,0V77.4h1.43Zm-2.21,36.68H35.72v-6.37h1.41Z" transform="translate(-17.3 -14.05)"/><path class="cls-1" d="M130.69,110.73a.18.18,0,0,0-.34.1l.2,7.78c0,4,5.2,7.77,10.78,5.92l-2.5-10.19A7.83,7.83,0,0,1,130.69,110.73Z" transform="translate(-17.3 -14.05)"/><path class="cls-1" d="M153.5,94.81,135.28,101a5.71,5.71,0,0,0-3.15,3.19,6.23,6.23,0,0,0,.39,5.25c3.17,4.81,8.69,1.81,8.69,1.81l8.9-4.76c2.54-1.47,3.9-2.88,4.53-5.37l1.8-7.91a.07.07,0,0,0-.12-.08,9.42,9.42,0,0,1-2.73,1.66Z" transform="translate(-17.3 -14.05)"/></svg>